<svg id="Layer_1" data-name="Layer 1" xmlns="http://www.w3.org/2000/svg" viewBox="0 0 413.48 85.53"><defs><style>.cls-1{fill:#666;}</style></defs><title>Artboard 8 copy</title><path class="cls-1" d="M3.82,65.1l12.53-64L36.78,47.37,57.94,1.12l11.25,64H60L54.24,29.18,36.62,67.84,19.51,29.14l-6.4,36Z"/><path class="cls-1" d="M149.64,35.65V65.1H141V35.65h-3.7V27.56H141V13.8h8.67V27.56h6.75v8.09Z"/><path class="cls-1" d="M163.87,0h8.67V30.68a15,15,0,0,1,10.21-4.16,13.2,13.2,0,0,1,10.18,4.12q3.24,3.59,3.24,11.45v23H187.5V42.9c0-3-.54-5.18-1.6-6.53s-2.79-2-5.15-2q-4.55,0-6.4,2.82T172.54,47V65.1h-8.67Z"/><path class="cls-1" d="M241.34,48.37h-26.9a11.42,11.42,0,0,0,3,7.37,9.21,9.21,0,0,0,6.83,2.69,8.85,8.85,0,0,0,5.35-1.54,21.92,21.92,0,0,0,4.74-5.7l7.33,4.08a29.23,29.23,0,0,1-3.59,5,19.26,19.26,0,0,1-4,3.39,16.42,16.42,0,0,1-4.67,1.94,22.73,22.73,0,0,1-5.43.62q-8.4,0-13.49-5.4t-5.09-14.41q0-8.91,4.93-14.42t13.19-5.43q8.28,0,13.1,5.28t4.78,14.53Zm-8.9-7.09q-1.81-6.93-8.75-6.94a9,9,0,0,0-3,.48,8.73,8.73,0,0,0-2.52,1.39,8.86,8.86,0,0,0-1.95,2.18A10,10,0,0,0,215,41.28Z"/><path class="cls-1" d="M250.82,27.56h8.68v3.35a16.47,16.47,0,0,1,4.24-3.43,9.73,9.73,0,0,1,4.47-1,14,14,0,0,1,7.17,2.23l-4,7.94a8.32,8.32,0,0,0-4.82-1.77q-7.09,0-7.09,10.72V65.1h-8.68Z"/><path class="cls-1" d="M302.16,34,295,37.77q-1.71-3.47-4.21-3.47a2.93,2.93,0,0,0-2,.79,2.69,2.69,0,0,0-.85,2c0,1.44,1.67,2.86,5,4.28q6.9,3,9.29,5.47a9.34,9.34,0,0,1,2.39,6.75,11.79,11.79,0,0,1-4,9.09,13.64,13.64,0,0,1-9.4,3.47q-9.45,0-13.37-9.21l7.4-3.43A15.81,15.81,0,0,0,287.56,57a5.33,5.33,0,0,0,3.77,1.46c2.93,0,4.4-1.33,4.4-4q0-2.31-3.39-4.31c-.88-.44-1.75-.86-2.62-1.27S288,48,287.06,47.56a16,16,0,0,1-5.32-3.7,9.1,9.1,0,0,1-2-6,10.72,10.72,0,0,1,3.35-8.09,11.8,11.8,0,0,1,8.33-3.2Q298.65,26.52,302.16,34Z"/><path class="cls-1" d="M312.38,0h8.67V30.68a15,15,0,0,1,10.22-4.16,13.17,13.17,0,0,1,10.17,4.12q3.24,3.59,3.24,11.45v23H336V42.9c0-3-.54-5.18-1.6-6.53s-2.78-2-5.15-2q-4.54,0-6.4,2.82T321.05,47V65.1h-8.67Z"/><path class="cls-1" d="M354.35,12A5.38,5.38,0,0,1,356,8a5.63,5.63,0,0,1,8,0,5.35,5.35,0,0,1,1.66,4A5.49,5.49,0,0,1,364,16a5.34,5.34,0,0,1-4,1.65A5.48,5.48,0,0,1,356,16,5.55,5.55,0,0,1,354.35,12Zm10,15.61V65.1h-8.68V27.56Z"/><path class="cls-1" d="M384,85.53h-8.67v-58H384v4.08a16.47,16.47,0,0,1,24.4.58,20.62,20.62,0,0,1,5.09,14.3,20.26,20.26,0,0,1-5.05,14.07A16.45,16.45,0,0,1,384,60.9Zm20.62-39a13,13,0,0,0-2.92-8.79,9.51,9.51,0,0,0-7.48-3.43,9.91,9.91,0,0,0-7.75,3.32,12.55,12.55,0,0,0-3,8.71,12.83,12.83,0,0,0,3,8.71,9.72,9.72,0,0,0,7.71,3.35A9.39,9.39,0,0,0,401.61,55,12.33,12.33,0,0,0,404.61,46.56Z"/><path class="cls-1" d="M125.77,41.64a.48.48,0,0,0-.75.43q0,.52,0,1a9.7,9.7,0,0,1-.44,2.9.47.47,0,0,0,.14.5A8.53,8.53,0,0,1,128,52.81c0,6.93-11,12.55-24.52,12.55S79,59.74,79,52.81a8.51,8.51,0,0,1,3.3-6.29.49.49,0,0,0,.14-.51A9.29,9.29,0,0,1,82,43.12q0-.52,0-1a.48.48,0,0,0-.75-.43c-4.38,3-6.76,6.9-6.76,11.17,0,5.12,3.42,9.69,9.63,12.87,5.25,2.69,12.14,4.17,19.39,4.17s14.13-1.48,19.38-4.17c6.21-3.18,9.63-7.75,9.63-12.87C132.53,48.54,130.15,44.65,125.77,41.64Z"/><path class="cls-1" d="M86.84,57.68A3,3,0,1,0,84.92,57,2.94,2.94,0,0,0,86.84,57.68Z"/><path class="cls-1" d="M118.3,52.39a3,3,0,1,0,4.21.35A3,3,0,0,0,118.3,52.39Z"/><path class="cls-1" d="M103.54,56.3h0a3,3,0,1,0,0,6h0a3,3,0,0,0,0-6Z"/><path class="cls-1" d="M103.52,53.44a33.41,33.41,0,0,0,7.41-.79H111c.5-.12,1-.25,1.49-.39l.55-.17,1-.31.63-.25.79-.32.51-.25.82-.41.29-.18c.32-.18.63-.37.92-.56l.06,0c2.52-1.73,4-4,4-6.64,0-.25,0-.5,0-.75,0-.06,0-.12,0-.18a19.43,19.43,0,0,0-4.59-11.14c-.11-.14-.23-.27-.35-.41s-.48-.54-.73-.8-.61-.61-.92-.9l-.28-.25c-.39-.34-.79-.67-1.21-1l-.13-.09c-.46-.34-.93-.66-1.42-1l-.06,0c-.5-.3-1-.58-1.55-.83l-.12-.06c-.5-.23-1-.44-1.53-.62L108.8,25c-.41-.14-.82-.26-1.25-.37l-.74-.16c-.27-.06-.55-.1-.83-.15s-.8-.1-1.21-.13a4.93,4.93,0,0,0-.55,0c-.23,0-.46-.05-.7-.05s-.47,0-.71,0l-.55,0c-.41,0-.81.07-1.21.13l-.83.15c-.25.05-.5.1-.74.17-.42.1-.84.22-1.25.36l-.32.11c-.52.18-1,.39-1.53.62l-.12.06c-.53.25-1,.53-1.54.83l-.06,0c-.49.3-1,.62-1.43,1l-.13.09c-.41.31-.82.64-1.21,1l-.27.25c-.32.29-.63.59-.92.9s-.5.52-.74.8c-.12.13-.24.27-.35.41A19.49,19.49,0,0,0,85,42.18a1.21,1.21,0,0,1,0,.19c0,.25,0,.5,0,.75C85,49.23,93.28,53.44,103.52,53.44Zm1.55-22.36a2,2,0,0,1,.49-.66l0,0a2,2,0,0,1,1-.5h0a2.09,2.09,0,0,1,1.2.17,16,16,0,0,1,4.86,3.58,17.22,17.22,0,0,1,3.26,5,2.1,2.1,0,0,1-1.1,2.75,2.2,2.2,0,0,1-.83.17,2.09,2.09,0,0,1-1.92-1.28,12.89,12.89,0,0,0-2.47-3.76,11.89,11.89,0,0,0-3.57-2.65A2.09,2.09,0,0,1,105.07,31.08Z"/></svg>