<?xml version="1.0" standalone="no"?>
<!DOCTYPE svg PUBLIC "-//W3C//DTD SVG 20010904//EN"
 "http://www.w3.org/TR/2001/REC-SVG-20010904/DTD/svg10.dtd">
<svg version="1.0" xmlns="http://www.w3.org/2000/svg"
 width="241.000000pt" height="241.000000pt" viewBox="0 0 241.000000 241.000000"
 preserveAspectRatio="xMidYMid meet">
<metadata>
Created by potrace 1.11, written by Peter Selinger 2001-2013
</metadata>
<g transform="translate(0.000000,241.000000) scale(0.100000,-0.100000)"
fill="#000000" stroke="none">
<path d="M1115 2103 c-182 -37 -287 -93 -411 -218 -117 -118 -199 -277 -219
-425 -17 -125 -10 -176 32 -243 77 -123 289 -229 508 -254 78 -9 294 -9 367
-1 158 19 349 95 436 173 26 24 61 67 77 96 25 46 29 65 29 134 1 224 -102
425 -307 598 -45 38 -162 97 -235 118 -63 19 -229 32 -277 22z m313 -260 c131
-79 272 -256 272 -341 0 -30 -28 -67 -58 -76 -30 -10 -71 11 -90 45 -61 112
-140 199 -217 240 -29 16 -51 36 -61 58 -16 32 -15 37 1 67 29 55 70 57 153 7z"/>
<path d="M269 1373 c-70 -62 -69 -61 -105 -108 -72 -93 -105 -196 -99 -310 8
-155 88 -287 239 -399 373 -275 1069 -333 1571 -131 145 59 272 145 354 239
144 168 160 395 40 574 -61 91 -186 199 -206 178 -4 -4 -8 -23 -9 -44 -1 -20
-5 -60 -9 -89 -7 -51 -6 -54 29 -90 20 -21 50 -66 67 -100 27 -54 31 -70 27
-125 -5 -78 -35 -143 -96 -207 -133 -137 -369 -231 -667 -267 -130 -16 -382
-7 -508 17 -28 5 -65 12 -82 15 -51 8 -237 74 -290 102 -244 129 -337 309
-246 478 18 34 47 76 65 93 31 30 33 35 25 74 -4 23 -8 66 -9 95 0 44 -3 52
-19 52 -10 0 -43 -21 -72 -47z"/>
<path d="M500 1013 c-66 -27 -90 -120 -45 -178 82 -108 245 -24 206 106 -19
62 -97 97 -161 72z"/>
<path d="M1784 986 c-33 -33 -38 -47 -35 -91 7 -86 94 -134 171 -95 49 25 76
86 60 136 -17 51 -63 84 -117 84 -38 0 -50 -5 -79 -34z"/>
<path d="M1142 820 c-71 -44 -69 -161 3 -200 64 -34 144 -8 171 56 45 108 -73
205 -174 144z"/>
</g>
</svg>
